<svg id="Layer_1" data-name="Layer 1" xmlns="http://www.w3.org/2000/svg" viewBox="0 0 226.772 172.913"><defs><style>.cls-1{fill:#fff;}.cls-2{fill:#003359;}.cls-3{fill:#f12c3e;}</style></defs><title>WSE_MASTER LOGO_COLOUR_POSITIVE</title><polygon class="cls-1" points="0 0 0 172.913 226.772 172.913 226.772 0 0 0 0 0"/><path class="cls-2" d="M179.873,80.4026c.668-1.2815,1.599-3.2564-.732-4.2558-1.807-.7762-3.242-1.2691-3.242-1.2691A3.6165,3.6165,0,0,1,175.9,77.14a36.5463,36.5463,0,0,1-1.986,4.5992c-1.646.031-2.098-.1757-1.948-.88,0,0-.688.4729-.266,1.6925a2.3413,2.3413,0,0,0,1.205,1.24c-.268.5346-.551,1.0948-.846,1.6748a71.36,71.36,0,0,1-8.356,6.8562c-2.14,1.3867-1.969-1.4893-1.336-3.1145.156-.3416.313-.6631.471-.9716a12.2153,12.2153,0,0,0,5.577-2.5595c2.761-2.3154,2.402-3.8575,1.499-4.5195a6.9047,6.9047,0,0,0-2.67-1.179,3.153,3.153,0,0,0-2.104.4683,12.2737,12.2737,0,0,0-5.64,8.2257c-1.372.9075-2.337,1.984-3.829,3.1158-1.563,1.1847-2.003.4195-2.138-.5226a5.6865,5.6865,0,0,1,.836-2.6538,12.5805,12.5805,0,0,0,5.995-4.167c.835-1.0766,1.644-2.4264.357-3.2068a13.6241,13.6241,0,0,0-2.163-.7652,1.8986,1.8986,0,0,0-1.422.0665c-.702.3515-2.594,1.3787-4.562,5.0422a13.8589,13.8589,0,0,0-1.001,2.3073c-.693-.6317-.224-2.3844.109-3.1412.409-.9325,1.158-2.3137.989-3.0137a2.39,2.39,0,0,0-1.696-1.545c-.843-.2264-1.276.3114-1.743,1.0907a74.9424,74.9424,0,0,1-4.749,7.1c-.175-.3367,2.099-4.3245,2.446-4.9883.437-.84-.427-1.5833-.427-1.5833a6.81,6.81,0,0,0-1.375-.9029c-.779-.3772-1.48-.0567-2.585.9244-2.799,2.74-8.006,10.0737-8.687,10.9411s-1.29,1.609-1.687,1.3942c-.545-.3282-.514-1.7361.834-4.471,2.032-3.8589,4.077-7.061,5.672-9.6666.274-.0585.556-.1209.848-.19,4.827-1.1283,13.527-3.0169,17.876-2.1728,4.045.7846,4.619,2.6672,7.887,1.9263.551-3.3141-.722-5.438-2.798-5.9592s-7.225-.0662-10.832.5078c-3.053.4853-6.804,1.3034-10.96,2.3.988-2.3331-.015-3.2075-.959-3.6607-.871-.4173-3.641-1.5886-3.641-1.5886a3.8783,3.8783,0,0,1,.434,2.8764,39.67,39.67,0,0,1-1.581,3.7565c-2.594.5592-4.121.5926-4.052-.8646a2.1267,2.1267,0,0,0,.317,2.6419,4.2442,4.2442,0,0,0,2.531.9251c-.816,1.8633-1.704,3.9769-2.514,6.1779-2.158,5.8616-1.58,7.3667-.025,8.4042s2.736.25,4.851-3.1476,4.681-7.2322,7.015-9.293a26.6664,26.6664,0,0,0-3.104,6.9769c-.474,1.7294-.163,2.4224.229,2.9943a3.5266,3.5266,0,0,0,1.831,1.4059c.881.2986,1.01-.1839,1.304-.866a55.8178,55.8178,0,0,1,5.661-10.2463c-.561,1.5931-.465,5.264,2.327,5.9144-.398,1.9531.095,3.3691,1.338,4.1019,1.855,1.0921,3.073.6286,4.524-1.1335a12.65,12.65,0,0,1,2.175-2.1982,14.1236,14.1236,0,0,0-.106,1.446,3.3466,3.3466,0,0,0,4.997,3.0271,87.1671,87.1671,0,0,0,6.767-6.5868c-.205.3959-.413.7973-.627,1.2087-1.033,2.0425-1.71,4.4558-.929,6.5s2.976,2.7193,5.053,1.4523,6.199-3.5582,11.464-10.74c-2.24,1.9-10.292,7.7-12.669,8.7789-.486.1433-.663-.1028-.438-.8867a89.1806,89.1806,0,0,1,4.842-9.4825c.103-.0113.202-.0205.308-.0338,3.847-.5093,9.72-2.781,12.533-4.115-1.778.2976-7.178.8385-11.192,1.1864.173-.3215.35-.6532.514-.9691Zm-24.701,6.8463a21.7393,21.7393,0,0,1,3.616-4.3766c1.165-.8589,1.58-.3969,1.204.2937a11.19,11.19,0,0,1-4.82,4.0829Zm8.138.1151c2.382-4.1741,4.771-4.8622,5.947-4.9756.136.3817.253,1.1255-2.171,3.1747a7.81,7.81,0,0,1-3.776,1.8009Z"/><path class="cls-2" d="M131.528,72.4817c1.721-4.0109-1.232-5.0839-5.464-7.2911a3.7633,3.7633,0,0,0-2.659-.17,22.9583,22.9583,0,0,0-7.761,4.9366c-5.483,5.5952-10.987,12.4267,4.17,14.6084,3.397.4891,4.915,1.5294,4.313,2.92-2.159,5.4888-14.53,4.985-15.478,4.9261s-.898-.5513-.474-1.1622a31.3688,31.3688,0,0,1,6.591-6.4829c-6.681,2.1515-9.567,4.3278-10.572,5.1759s-1.929,1.78-1.085,3.074c4.382,6.6737,17.788,4.5987,22.98.277s.978-8.3461-4.093-9.5859c-3.267-.8-2.775-.5746-5.537-1.3854-2.666-.7841-2.261-3.9777.976-6.8286,6.754-5.6962,9.586-4.8431,9.586-4.8431.26,2.85-1.923,8.5226-4.338,12.11,4.724-3.5049,7.125-6.268,8.845-10.2788Z"/><path class="cls-2" d="M164.053,115.83c1.013-1.359,1.353-1.905,1.353-1.905a.5488.5488,0,0,0-.145-.807c-.445-.337-1.656-1.202-1.844-.732-.205.527-1.229,3.236-1.737,4.743a2.9835,2.9835,0,0,0,2.373-1.299Zm30.485-10.905a2.14,2.14,0,0,0-.823-1.913,9.7108,9.7108,0,0,0-1.538-1.111c-1.146-.655-2.527.025-3.577,1.177a42.0164,42.0164,0,0,0-6.522,9.099c-1.108,1.944-2.094,3.876-2.921,5.617-1.929,1.028-4.238,2.206-6.498,3.338a21.9353,21.9353,0,0,0-4.105-.649c-.452-.063-.401-.161-.185-.494,1.448-2.137,4.556-3.294,5.098-3.481.544-.188,1.054-.264.777.125s-.95,1.163-.95,1.163a10.5983,10.5983,0,0,0,3.207-1.66,1.2779,1.2779,0,0,0,.243-1.763c-.408-.625-1.19-1.646-1.491-2.018a1.1636,1.1636,0,0,0-1.22-.44c-.482.104-3.426.533-6.759,4.127-.972,1.093-1.907,2.936-1.633,4.148a36.7477,36.7477,0,0,1-5.107,5.443c.887-2.605,1.648-4.875,1.987-5.917s-.412-1.429-1.164-1.854c-.433-.243-.754-.236-1.849.645-1.586,1.508-6.496,5.581-7.146,6.132s-.971.658-.836-.163a16.4406,16.4406,0,0,1,.549-1.732,45.0488,45.0488,0,0,0,3.653-2.915c5.322-4.778,8.705-10.523,9.68-15.671a1.4684,1.4684,0,0,0-.53-1.542,17.2377,17.2377,0,0,0-1.578-1.112,1.6787,1.6787,0,0,0-1.52.087c-.726.4-2.869,1.787-7.31,8.563a45.175,45.175,0,0,0-5.125,11.292,9.329,9.329,0,0,0-.424,1.973c-1.185.775-2.268,1.45-3.299,2.061,1.48-3.933,2.667-7.893,2.953-8.729a1.9487,1.9487,0,0,0-.32-2.29,5.1776,5.1776,0,0,0-1.546-.769,1.3575,1.3575,0,0,1,.035,1.421c-.156.345-.667,1.507-1.467,2.969a1.42,1.42,0,0,0-.303-1.045,21.6677,21.6677,0,0,0-2.282-2.059,1.7184,1.7184,0,0,0-1.513-.315,8.2417,8.2417,0,0,0-4.053,3.427,10.5052,10.5052,0,0,0-1.799,6.091c-.484.551-.983,1.112-1.362,1.526-.408.438-.706.342-.749-.579-.042-.893.705-5.098.875-7.808.064-1.213.025-1.335-.367-1.706s-1.296-1.196-2.194-.157c-.899,1.037-4.027,5.367-6.397,8.243,0,0,1.696-3.101,2.817-5.389.531-1.205.941-2.581-.358-3.285a17.0091,17.0091,0,0,0-3.709-1.427,2.6332,2.6332,0,0,1,.787,2.806c-.535,1.79-1.239,3.72-1.951,5.776-4.143,2.283-10.61,5.569-12.997,5.259-.253-2.965,1.595-6.171,3.447-8.846.789-.167,1.67-.375,2.79-.632,3.651-.839,6.138-1.359,6.237-.272,1.268-1.589.435-3.997-1.685-3.882a28.3513,28.3513,0,0,0-4.604.897c1.851-2.694,4.029-5.952,5.28-7.656,2.744-.564,5.239-1.068,6.954-1.316,2.08-.215,2.206-.257,1.319.999-.889,1.255-2.923,3.907-3.974,5.482a55.7209,55.7209,0,0,0,7.397-3.96c1.921-1.308,1.575-2.365,1.194-3.143a27.5485,27.5485,0,0,0-1.554-2.44s-1.045-1.702-3.802-1.169c-4.411.854-24.526,4.096-25.766,2.033,0,0-1.728,6.776,5.637,5.845,1.898-.24,4.192-.649,6.57-1.112-.704.613-2.979,2.809-6.342,8.148-2.355.193-4.452-.336-4.439-1.039,0,0-.274,3.497,2.788,3.772-.286.494-.577,1-.876,1.536-1.158,2.115-1.767,4.724-.49,6.99s4.698,3.034,8.532.926a87.0813,87.0813,0,0,0,7.87-4.897c-.066.2-.134.391-.199.593-.569,1.61-.244,2.383.345,2.879.555.466.956.714,1.885-.374.734-.858,4.049-5.267,6.173-7.741-.854,2.98-2.304,8.088.152,9.221s3.574-.995,4.76-2.473c.094-.116.168-.213.247-.314a2.2609,2.2609,0,0,0,.344.644c1.095,1.378,2.692,1.406,4.266.447a14.364,14.364,0,0,0,1.825-1.405c-.295.782-.698,1.794-1.191,2.908-1.867.929-3.854,1.841-6.297,2.967-6.337,2.917-7.774,3.904-8.529,5.838-.782,2.003,1.079,5.369,6.852,3.733,6.248-2.453,8.715-6.173,11.274-11.688.232-.502.463-1.015.69-1.533,1.182-.681,2.646-1.556,4.199-2.561a2.3543,2.3543,0,0,0,1.091,1.516,1.8238,1.8238,0,0,0,2.6-.107c1.142-.997,2.689-2.801,6.024-6.039-.587,1.562-1.345,3.608-1.897,5.358-.298.968-.149,1.57.603,1.918.754.349,1.98.968,2.794.158.785-.781,3.852-4.48,5.826-6.728a1.61,1.61,0,0,0,.655.36c1.69.502,3.63-.044,5.163.251-4.432,2.214-8.457,4.159-8.724,4.322a.6681.6681,0,0,0-.317.949,4.0527,4.0527,0,0,0,1.138,1.618c2.361,1.948,5.958.266,8.258-.959s3.808-3.264,2.372-5.098a3.2768,3.2768,0,0,0-.954-.806c1.655-.929,3.409-1.886,5.032-2.708a47.5145,47.5145,0,0,0-1.996,4.914c-.552,1.787.318,2.177,1.152,2.526.832.351,1.486-.462,2.507-1.643,2.246-2.62,4.691-5.2,4.691-5.2s.116-.12.124.031c.015.27-.024.518-1.244,3.234-.588,1.313-1.343,4.152-.198,5.948,1.228,1.925,3.646,1.598,5.263.564a22.9832,22.9832,0,0,0,4.778-3.964,26.0343,26.0343,0,0,1-4.623,2.085c-1.237.429-2.022.724-1.965-.705a47.8867,47.8867,0,0,1,1.749-7.129c.521-1.765.789-2.139-.904-2.747a1.3753,1.3753,0,0,0-1.62.423c-.952.752-5.16,4.851-6.546,6.105-.975.882-.6.065.395-1.865.857-1.426,1.746-2.802,2.635-4.11,11.778-7.572,11.643-11.556,11.675-12.392Zm-54.717,25.08a29.45,29.45,0,0,1-2.493,3.856c-3.192,4.101-9.073,6.663-9.908,4.367s2.949-3.956,4.804-4.862c1.504-.734,4.435-1.888,7.597-3.361Zm4.247-9.881a18.75,18.75,0,0,1-4.506,5.081c-1.817,1.142-2.607.015-1.431-2.187s3.646-4.721,5.125-5.343c.735-.305,1.437-.285.812,2.449Zm8.871.51a52.9483,52.9483,0,0,1,3.411-6.333,76.7462,76.7462,0,0,1,6.873-9.216c.276-.304.598-.458.539.066a22.2717,22.2717,0,0,1-4.122,8.418,45.6675,45.6675,0,0,1-6.701,7.065Zm18.499,3.475a23.0437,23.0437,0,0,1-4.831,1.998c-.511.104-.627-.095.13-.531.431-.249,3.065-1.846,6.202-3.625.012.008.025.014.038.022.676.657-.418,1.509-1.539,2.136Zm20.423-15.963c-1.943,2.882-5.703,5.897-7.814,7.467a80.6513,80.6513,0,0,1,8.099-9.895c.853-.735.783.836-.285,2.428Z"/><path class="cls-2" d="M166.775,37.87a2.3776,2.3776,0,0,0-1.425-2.257s-1.762-.7013-2.232-.7878a2.2492,2.2492,0,0,0-1.539.609,11.3879,11.3879,0,0,0-1.358,1.3374c-.274.3276-.532.6473-.78.9618a32.4143,32.4143,0,0,0-5.759,12.61c-.278,1.4249-.554,3.01-.869,4.817-.048.2708-.087.5324-.121.7913-3.601,2.4689-3.068-.833-2.801-3.8951q.1005-1.1451.252-2.2579c5.993-6.7429,7.079-12.7446,7.113-14.5919.036-1.92-1.093-2.1339-1.093-2.1339A16.7511,16.7511,0,0,0,154.2,32.57a2.1142,2.1142,0,0,0-1.774.6373,29.4492,29.4492,0,0,0-7.446,18.886c.055,5.5263,3.445,7.5184,7.573,5.3323-.444,9.0888,7.719,8.78,11.421,4.6185a29.5034,29.5034,0,0,0,5.4-8.26c-4.7,6.7029-13.716,13.0615-12.207,1.9167.137-1.0109.31-1.9747.51-2.8938,9.386-11.3647,9.098-14.9375,9.098-14.9375ZM150.327,48.5572a53.1729,53.1729,0,0,1,3.645-12.778c.698-1.3986,1.543-1.6981,1.738-.9116.757,5.4362-3.732,11.625-5.383,13.69Zm14.118-9.5106c.047,1.292-1.778,6.5523-6.284,11.7992,2.193-7.89,6.284-11.7992,6.284-11.7992Z"/><path class="cls-2" d="M143.228,58.2321c-.552-.6244-.227-3.85-.112-4.9591a2.0838,2.0838,0,0,0-1.16-2.189c-.834-.5773-1.584-.6745-2.041-.3229s-3.003,2.8065-4.96,4.8948a12.9974,12.9974,0,0,1,3.243-5.0128,3.779,3.779,0,0,1,4.449-.3345c.222.1742.314.2958.636.13s.032-.6661.032-.6661c-1.591-3.256-4.531-3.73-6.591-2.1213-5.212,4.3779-4.997,7.8681-4.683,9.1038s2.008,2.2789,3.598.4671c1.642-1.8714,2.892-3.8509,4.275-5.4694-.536,1.53-2.026,8.6844,1.737,9.3591s4.081-4.14,4.081-4.14c-.686,1.4591-1.953,1.8836-2.504,1.26Z"/><path class="cls-2" d="M131.521,52.6849c.599-4.3773.441-17.3211-.089-20.3491-.557,6.4632-4.988,17.1786-5.886,23.78-1.882-3.1918-1.274-8.0628-.802-10.4278s-2.932-2.7814-4.724-2.1614c.229,1.2259-5.518,8.8345-11.19,12.7763.909-3.0064,6.331-11.8236,11.455-17.9312,2.605-3.1247,2.27-3.9446.087-4.9117s-3.167-1.3352-3.945-.5554-3.283,3.1147-3.283,3.1147,3.167-1.6069,1.6.4555-10.797,14.22-11.84,19.6686,4.702,6.2849,7.468,3.4177c2.77-2.871,8.53-11.09,8.53-11.09s-.724,10.4867,4.932,11.4325c5.267.8816,7.09-2.8421,7.687-7.2191Z"/><path class="cls-2" d="M97.2365,44.4264c.0983-9.9635-4.8761-10.9982-9.9066-11.5712-3.5095-.4009-17.9472-.65-23.3282-.5923-3.6723.04-21.2086.1014-26.0843,2.1017-2.8421,1.1662-4.4365,3.604-5.13,6.9955-.4565,2.2314-.2839,4.9828-.3945,7.5494-.1128,2.6161.28,35.2549.2243,45.8486-.04,7.4039.0218,12.5839-.0992,20.2389a29.4852,29.4852,0,0,0,.74,7.197c.9991,3.516,4.1077,7.507,13.2215,7.6,5.2326.053,15.22.045,20.6747-.051.4912,4.676-.0359,11.932-3.0728,20.399-.2168.605-.444,1.214-.687,1.83l-.02.048c-.2883.666-.5993,1.299-.1431,1.813a1.0109,1.0109,0,0,0,1.2575.317,5.6915,5.6915,0,0,0,.714-.345l-.0406.028s.0281-.016.0681-.041a10.3107,10.3107,0,0,0,1.13-.755c3.3162-2.345,12.5411-10.329,14.9452-22.933,4.3849.028,8.65-.383,11.1549-2.123,3.6114-2.507,4.7695-6.094,4.7695-12.24,0-36.7624.0068-71.3146.0068-71.3146Zm-6.65,55.7006c.1126,12.105-.3453,20.846-.3453,20.846-.3866,6.729-11.3922,6.862-11.3922,6.862-1.1093,14.346-13.335,23.99-13.335,23.99a30.401,30.401,0,0,0,1.8852-4.533,62.6287,62.6287,0,0,0,2.9567-13.439c.3584-4.1.3182-7.596-.9554-10.31-1.03-2.195-3.2584-3.237-5.4457-4.371-1.4431-.748-7.0936-3.673-7.0936-3.673-4.5587-2.307-5.1277-3.887-5.4932-5.807-.6127-3.219-.4328-46.5688-.3749-51.4083.1168-9.7354,1.1756-11.09,6.924-12.4613,10.1617-2.4241,29.32-5.9267,29.32-5.9267,3.4343-.614,3.278,3.1585,3.35,6.0361.2252,9.0183-.1881,33.9916,0,54.1952Z"/><path class="cls-3" d="M51.7593,127.478a56.7151,56.7151,0,0,1-6.513-.201c-2.976-.313-5.8253-1.767-7.2027-3.925-2.133-3.341-1.773-8.714-1.8757-13.94-.0974-5.043-.1746-49.0455-.1746-49.7327,0-1.9558.0338-4.9661.0646-7.05.0715-4.94-.5627-11.0375,1.861-14.0594A8.0348,8.0348,0,0,1,42.61,36.035c4.855-.8862,13.48-1.07,20.7556-1.1672,7.5637-.1014,19.045.596,21.5963.7547.6162.0384,1.8979.0741,1.8748.5038-.0246.4542-1.1438.58-1.6773.7039-2.1847.51-26.5118,5.6983-30.6376,7.1459-4.3682,1.5327-5.48,3.9551-5.8026,9.8223-.1948,3.5436-.5806,49.6936-.4825,53.1466.1084,3.813.345,6.29,2.68,8.304a22.87,22.87,0,0,0,4.18,2.794c2.9019,1.521,5.9782,3.21,7.7528,4.239.01.006.0211.013.0314.018.113.066.2191.128.3209.188a10.2128,10.2128,0,0,1,1.9041,1.509,5.179,5.179,0,0,1,1.3274,2.12,12.8121,12.8121,0,0,1,.3825,1.425c-3.9415.059-11.4573-.084-15.0561-.064Z"/><path class="cls-2" d="M198.319,105.955a3.3089,3.3089,0,0,0,1.77,1.742,3.3829,3.3829,0,0,0,2.577,0,3.3089,3.3089,0,0,0,1.77-1.742,3.148,3.148,0,0,0,.262-1.282,3.2031,3.2031,0,0,0-.262-1.29,3.2959,3.2959,0,0,0-.714-1.049,3.4516,3.4516,0,0,0-1.056-.707,3.2994,3.2994,0,0,0-2.577,0,3.4516,3.4516,0,0,0-1.056.707,3.2959,3.2959,0,0,0-.714,1.049,3.2031,3.2031,0,0,0-.262,1.29,3.148,3.148,0,0,0,.262,1.282Zm.481-2.365a2.7723,2.7723,0,0,1,1.485-1.482,2.8345,2.8345,0,0,1,2.185,0,2.7723,2.7723,0,0,1,1.485,1.482,2.7283,2.7283,0,0,1,.219,1.09,2.6961,2.6961,0,0,1-.219,1.076,2.8887,2.8887,0,0,1-.597.894,2.7872,2.7872,0,0,1-3.961,0,2.8713,2.8713,0,0,1-.597-.894,2.6961,2.6961,0,0,1-.219-1.076,2.7283,2.7283,0,0,1,.219-1.09Zm1.281,2.934h.67v-1.56h.481l.874,1.56h.815l-1.005-1.633a1.1666,1.1666,0,0,0,.627-.342.9461.9461,0,0,0,.233-.663,1.0127,1.0127,0,0,0-.117-.51.9842.9842,0,0,0-.313-.335,1.3412,1.3412,0,0,0-.444-.19,2.2655,2.2655,0,0,0-.51-.058h-1.311v3.731Zm.67-2.084v-1.079h.612a1.254,1.254,0,0,1,.502.104.4043.4043,0,0,1,.241.413.44.44,0,0,1-.262.451,1.4091,1.4091,0,0,1-.554.111Z"/></svg>